<svg xmlns="http://www.w3.org/2000/svg" version="1.1" xmlns:xlink="http://www.w3.org/1999/xlink" xmlns:svgjs="http://svgjs.dev/svgjs" width="1500" height="1500" viewBox="0 0 1500 1500"><rect width="1500" height="1500" fill="#ffffff"></rect><g transform="matrix(0.6666666666666666,0,0,0.6666666666666666,249.39393939393938,547.4079266608403)"><svg viewBox="0 0 396 160" data-background-color="#ffffff" preserveAspectRatio="xMidYMid meet" height="606" width="1500" xmlns="http://www.w3.org/2000/svg" xmlns:xlink="http://www.w3.org/1999/xlink"><g id="tight-bounds" transform="matrix(1,0,0,1,0.2400000000000091,0.2344844907563015)"><svg viewBox="0 0 395.52 159.5310310184874" height="159.5310310184874" width="395.52"><g><svg viewBox="0 0 395.52 159.5310310184874" height="159.5310310184874" width="395.52"><g transform="matrix(1,0,0,1,0,98.5965772369748)"><svg viewBox="0 0 395.52 60.93445378151261" height="60.93445378151261" width="395.52"><g id="textblocktransform"><svg viewBox="0 0 395.52 60.93445378151261" height="60.93445378151261" width="395.52" id="textblock"><g><svg viewBox="0 0 395.52 60.93445378151261" height="60.93445378151261" width="395.52"><g transform="matrix(1,0,0,1,0,0)"><svg width="395.52" viewBox="3.85 -38.05 249.88 38.5" height="60.93445378151261" data-palette-color="#89939e"><path d="M8.4-22.3Q9.8-24.75 12.5-26.3 15.2-27.85 18.65-27.85L18.65-27.85Q22.35-27.85 25.3-26.1 28.25-24.35 29.95-21.18 31.65-18 31.65-13.8L31.65-13.8Q31.65-9.65 29.95-6.4 28.25-3.15 25.28-1.35 22.3 0.45 18.65 0.45L18.65 0.45Q15.1 0.45 12.43-1.1 9.75-2.65 8.4-5.05L8.4-5.05 8.4 0 3.85 0 3.85-37 8.4-37 8.4-22.3ZM27-13.8Q27-16.9 25.75-19.2 24.5-21.5 22.38-22.7 20.25-23.9 17.7-23.9L17.7-23.9Q15.2-23.9 13.08-22.68 10.95-21.45 9.68-19.13 8.4-16.8 8.4-13.75L8.4-13.75Q8.4-10.65 9.68-8.33 10.95-6 13.08-4.78 15.2-3.55 17.7-3.55L17.7-3.55Q20.25-3.55 22.38-4.78 24.5-6 25.75-8.33 27-10.65 27-13.8L27-13.8ZM42.2-22.95Q43.4-25.3 45.62-26.6 47.85-27.9 51.05-27.9L51.05-27.9 51.05-23.2 49.85-23.2Q42.2-23.2 42.2-14.9L42.2-14.9 42.2 0 37.65 0 37.65-27.4 42.2-27.4 42.2-22.95ZM54.6-13.8Q54.6-18 56.3-21.18 58-24.35 60.97-26.1 63.95-27.85 67.6-27.85L67.6-27.85Q71.2-27.85 73.85-26.3 76.5-24.75 77.8-22.4L77.8-22.4 77.8-27.4 82.4-27.4 82.4 0 77.8 0 77.8-5.1Q76.45-2.7 73.77-1.13 71.1 0.45 67.55 0.45L67.55 0.45Q63.9 0.45 60.95-1.35 58-3.15 56.3-6.4 54.6-9.65 54.6-13.8L54.6-13.8ZM77.8-13.75Q77.8-16.85 76.55-19.15 75.3-21.45 73.17-22.68 71.05-23.9 68.5-23.9L68.5-23.9Q65.95-23.9 63.85-22.7 61.75-21.5 60.5-19.2 59.25-16.9 59.25-13.8L59.25-13.8Q59.25-10.65 60.5-8.33 61.75-6 63.85-4.78 65.95-3.55 68.5-3.55L68.5-3.55Q71.05-3.55 73.17-4.78 75.3-6 76.55-8.33 77.8-10.65 77.8-13.75L77.8-13.75ZM92.44-31.85Q91.14-31.85 90.24-32.75 89.34-33.65 89.34-34.95L89.34-34.95Q89.34-36.25 90.24-37.15 91.14-38.05 92.44-38.05L92.44-38.05Q93.69-38.05 94.57-37.15 95.44-36.25 95.44-34.95L95.44-34.95Q95.44-33.65 94.57-32.75 93.69-31.85 92.44-31.85L92.44-31.85ZM90.09-27.4L94.64-27.4 94.64 0 90.09 0 90.09-27.4ZM115.74-27.9Q120.74-27.9 123.84-24.88 126.94-21.85 126.94-16.15L126.94-16.15 126.94 0 122.44 0 122.44-15.5Q122.44-19.6 120.39-21.78 118.34-23.95 114.79-23.95L114.79-23.95Q111.19-23.95 109.07-21.7 106.94-19.45 106.94-15.15L106.94-15.15 106.94 0 102.39 0 102.39-27.4 106.94-27.4 106.94-23.5Q108.29-25.6 110.62-26.75 112.94-27.9 115.74-27.9L115.74-27.9ZM144.09 0.45Q140.94 0.45 138.44-0.63 135.94-1.7 134.49-3.63 133.04-5.55 132.89-8.05L132.89-8.05 137.59-8.05Q137.79-6 139.51-4.7 141.24-3.4 144.04-3.4L144.04-3.4Q146.64-3.4 148.14-4.55 149.64-5.7 149.64-7.45L149.64-7.45Q149.64-9.25 148.04-10.13 146.44-11 143.09-11.85L143.09-11.85Q140.04-12.65 138.11-13.48 136.19-14.3 134.81-15.93 133.44-17.55 133.44-20.2L133.44-20.2Q133.44-22.3 134.69-24.05 135.94-25.8 138.24-26.83 140.54-27.85 143.49-27.85L143.49-27.85Q148.04-27.85 150.84-25.55 153.64-23.25 153.84-19.25L153.84-19.25 149.29-19.25Q149.14-21.4 147.56-22.7 145.99-24 143.34-24L143.34-24Q140.89-24 139.44-22.95 137.99-21.9 137.99-20.2L137.99-20.2Q137.99-18.85 138.86-17.98 139.74-17.1 141.06-16.57 142.39-16.05 144.74-15.4L144.74-15.4Q147.69-14.6 149.54-13.83 151.39-13.05 152.71-11.5 154.04-9.95 154.09-7.45L154.09-7.45Q154.09-5.2 152.84-3.4 151.59-1.6 149.31-0.58 147.04 0.45 144.09 0.45L144.09 0.45ZM173.19-23.65L166.04-23.65 166.04-7.5Q166.04-5.5 166.89-4.67 167.74-3.85 169.84-3.85L169.84-3.85 173.19-3.85 173.19 0 169.09 0Q165.29 0 163.39-1.75 161.49-3.5 161.49-7.5L161.49-7.5 161.49-23.65 157.94-23.65 157.94-27.4 161.49-27.4 161.49-34.3 166.04-34.3 166.04-27.4 173.19-27.4 173.19-23.65ZM203.68-14.75Q203.68-13.45 203.53-12L203.53-12 181.63-12Q181.88-7.95 184.41-5.68 186.93-3.4 190.53-3.4L190.53-3.4Q193.48-3.4 195.46-4.78 197.43-6.15 198.23-8.45L198.23-8.45 203.13-8.45Q202.03-4.5 198.73-2.02 195.43 0.45 190.53 0.45L190.53 0.45Q186.63 0.45 183.56-1.3 180.48-3.05 178.73-6.28 176.98-9.5 176.98-13.75L176.98-13.75Q176.98-18 178.68-21.2 180.38-24.4 183.46-26.13 186.53-27.85 190.53-27.85L190.53-27.85Q194.43-27.85 197.43-26.15 200.43-24.45 202.06-21.48 203.68-18.5 203.68-14.75L203.68-14.75ZM198.98-15.7Q198.98-18.3 197.83-20.18 196.68-22.05 194.71-23.03 192.73-24 190.33-24L190.33-24Q186.88-24 184.46-21.8 182.03-19.6 181.68-15.7L181.68-15.7 198.98-15.7ZM242.63-27.9Q245.83-27.9 248.33-26.58 250.83-25.25 252.28-22.6 253.73-19.95 253.73-16.15L253.73-16.15 253.73 0 249.23 0 249.23-15.5Q249.23-19.6 247.21-21.78 245.18-23.95 241.73-23.95L241.73-23.95Q238.18-23.95 236.08-21.68 233.98-19.4 233.98-15.1L233.98-15.1 233.98 0 229.48 0 229.48-15.5Q229.48-19.6 227.46-21.78 225.43-23.95 221.98-23.95L221.98-23.95Q218.43-23.95 216.33-21.68 214.23-19.4 214.23-15.1L214.23-15.1 214.23 0 209.68 0 209.68-27.4 214.23-27.4 214.23-23.45Q215.58-25.6 217.86-26.75 220.13-27.9 222.88-27.9L222.88-27.9Q226.33-27.9 228.98-26.35 231.63-24.8 232.93-21.8L232.93-21.8Q234.08-24.7 236.73-26.3 239.38-27.9 242.63-27.9L242.63-27.9Z" opacity="1" transform="matrix(1,0,0,1,0,0)" fill="#89939e" class="wordmark-text-0" data-fill-palette-color="primary" id="text-0"></path></svg></g></svg></g></svg></g></svg></g><g transform="matrix(1,0,0,1,155.65429243697477,0)"><svg viewBox="0 0 84.21141512605044 84.21141512605043" height="84.21141512605043" width="84.21141512605044"><g><svg></svg></g><g id="icon-0"><svg viewBox="0 0 84.21141512605044 84.21141512605043" height="84.21141512605043" width="84.21141512605044"><g><path transform="scale(0.84211,0.84211)" d="M30 100c-16.569 0-30-13.431-30-30v-40c0-16.569 13.431-30 30-30h40c16.569 0 30 13.431 30 30v40c0 16.569-13.431 30-30 30z" fill="#89939e" fill-rule="nonzero" stroke="none" stroke-width="1" stroke-linecap="butt" stroke-linejoin="miter" stroke-miterlimit="10" stroke-dasharray="" stroke-dashoffset="0" font-family="none" font-weight="none" font-size="none" text-anchor="none" style="mix-blend-mode: normal" data-fill-palette-color="accent"></path></g><g transform="matrix(1,0,0,1,19.472535037511427,16.842283025210087)"><svg viewBox="0 0 45.266345051027585 50.52684907563025" height="50.52684907563025" width="45.266345051027585"><g><svg xmlns="http://www.w3.org/2000/svg" xmlns:xlink="http://www.w3.org/1999/xlink" version="1.1" x="0" y="0" viewBox="10.618179522493447 8.079 43.7587025140418 48.844000000000015" enable-background="new 7.5 7.5 50 50" xml:space="preserve" height="50.52684907563025" width="45.266345051027585" class="icon-cg-0" data-fill-palette-color="quaternary" id="cg-0"><path d="M54.169 24.292C53.964 20.635 50.95 9.898 40.165 8.589c-2.185-0.265-4.517-0.51-6.767-0.51-6.475 0-10.934 2.104-14.909 7.037-4.512 5.597-3.354 10.369-2.589 13.526 0.29 1.192 0.539 2.222 0.289 2.723-1.054 2.108-4.642 7.231-4.684 7.29-0.853 1.263-1.083 2.182-0.723 2.892 0.547 1.079 2.261 1.146 3.918 1.209 1.139 0.045 2.43 0.095 2.81 0.494 0.8 0.842 0.894 3.489 0.962 5.423 0.048 1.354 0.086 2.423 0.305 3.035 0.133 0.373 0.49 0.816 1.437 0.816 0.627 0 1.401-0.175 2.297-0.377 1.395-0.314 3.11-0.644 4.203-0.372 0.479 0.12 0.832 0.379 1.078 0.792 0.793 1.335 0.193 3.707 0.188 3.73-0.039 0.15-0.006 0.31 0.089 0.432 0.094 0.122 0.24 0.194 0.395 0.194H49.03c0.156 0 0.301-0.082 0.395-0.206 0.095-0.124 0.123-0.294 0.082-0.444-0.005-0.02-0.13-0.497-0.13-2.648 0-0.576-0.08-1.139-0.165-1.733-0.281-1.98-0.632-4.444 1.667-9.582 0.509-1.136 0.956-2.056 1.345-2.857C54.195 35.392 54.725 34.301 54.169 24.292zM51.324 39.014c-0.393 0.809-0.845 1.738-1.357 2.886-2.418 5.4-2.028 8.135-1.744 10.131 0.083 0.583 0.154 1.087 0.154 1.593 0 1.143 0.033 1.855 0.074 2.299H29.076c0.152-0.918 0.301-2.646-0.422-3.864-0.384-0.647-0.954-1.069-1.696-1.255-1.304-0.326-3.157 0.027-4.665 0.367-1.259 0.285-2.474 0.479-2.573 0.2-0.167-0.467-0.206-1.568-0.247-2.734-0.083-2.325-0.176-4.96-1.237-6.077-0.659-0.694-2.037-0.747-3.496-0.804-1.24-0.048-2.784-0.107-3.065-0.662-0.098-0.192-0.142-0.693 0.654-1.872 0.149-0.213 3.668-5.236 4.754-7.41 0.414-0.829 0.138-1.966-0.211-3.405-0.72-2.967-1.808-7.45 2.395-12.663 3.766-4.671 7.992-6.665 14.131-6.665 2.197 0 4.492 0.242 6.646 0.503 10.28 1.248 12.97 11.965 13.127 14.766C53.712 34.098 53.254 35.041 51.324 39.014z" fill="#ffffff" data-fill-palette-color="quaternary"></path><path d="M30.679 22.078c-0.191-0.197-0.507-0.205-0.707-0.013l-7.084 6.833c-0.002 0.002-0.003 0.005-0.005 0.008-0.002 0.002-0.005 0.002-0.007 0.005-0.022 0.023-0.033 0.052-0.049 0.077-0.018 0.028-0.041 0.053-0.053 0.083-0.013 0.031-0.014 0.063-0.021 0.095-0.006 0.031-0.016 0.061-0.016 0.092s0.01 0.061 0.016 0.092c0.006 0.032 0.008 0.064 0.021 0.095 0.012 0.03 0.035 0.055 0.053 0.082 0.017 0.026 0.027 0.055 0.049 0.078 0.002 0.002 0.005 0.003 0.007 0.005 0.002 0.002 0.003 0.005 0.005 0.008l7.084 6.833c0.097 0.094 0.222 0.141 0.347 0.141 0.131 0 0.262-0.051 0.36-0.153 0.192-0.198 0.186-0.515-0.013-0.706l-6.711-6.474 6.711-6.473C30.865 22.593 30.871 22.277 30.679 22.078z" fill="#ffffff" data-fill-palette-color="quaternary"></path><path d="M46.627 29.164c-0.006-0.031-0.008-0.063-0.02-0.093-0.013-0.03-0.035-0.056-0.054-0.083-0.017-0.025-0.027-0.054-0.049-0.076-0.002-0.002-0.005-0.003-0.008-0.005-0.002-0.002-0.003-0.005-0.005-0.007l-7.084-6.833c-0.197-0.192-0.514-0.185-0.707 0.013-0.191 0.199-0.186 0.515 0.014 0.707l6.711 6.473-6.711 6.474c-0.199 0.191-0.205 0.508-0.013 0.706 0.098 0.103 0.229 0.153 0.359 0.153 0.125 0 0.25-0.047 0.347-0.141l7.084-6.833c0.002-0.002 0.003-0.004 0.004-0.006 0.003-0.003 0.007-0.003 0.01-0.006 0.025-0.026 0.039-0.06 0.057-0.09 0.015-0.023 0.034-0.044 0.045-0.069 0.013-0.033 0.016-0.068 0.021-0.103 0.005-0.029 0.015-0.057 0.015-0.085C46.644 29.226 46.634 29.195 46.627 29.164z" fill="#ffffff" data-fill-palette-color="quaternary"></path><path d="M37.897 20.17c-0.257-0.087-0.546 0.045-0.638 0.305l-6.082 17.233c-0.092 0.26 0.045 0.546 0.305 0.638 0.055 0.02 0.111 0.028 0.167 0.028 0.206 0 0.399-0.128 0.472-0.334l6.082-17.232C38.295 20.548 38.158 20.263 37.897 20.17z" fill="#ffffff" data-fill-palette-color="quaternary"></path></svg></g></svg></g></svg></g></svg></g><g></g></svg></g><defs></defs></svg><rect width="395.52" height="159.5310310184874" fill="none" stroke="none" visibility="hidden"></rect></g></svg></g></svg>